# xmcd CD database file
#
# Track frame offsets:
#	150
#	19990
#	38614
#	62780
#	86969
#	114956
#	129813
#	149610
#	178230
#	202318
#	229663
#	257881
#
# Disc length: 3641 seconds
#
# Revision: 4
# Processed by: cddbd v1.5.2PL0 Copyright (c) Steve Scherf et al.
# Submitted via: CDex 1.72
#
DISCID=b00e370c
DTITLE=Russell, Tom (USA-09-Blood and Candle Smoke-cty) - Blood and Candle Smoke
DYEAR=2009
DGENRE=Folk-Rock
TTITLE0=East of Woodstock, West of Viet Nam
TTITLE1=Santa Ana Wind
TTITLE2=Nina Simone
TTITLE3=Criminology
TTITLE4=Crosses of San Carlos
TTITLE5=Finding You
TTITLE6=Mississippi River Runnin' Backwards
TTITLE7=The Most Dangerous Woman in America
TTITLE8=Don't Look Down
TTITLE9=Guadalupe
TTITLE10=American Rivers
TTITLE11=Darkness Visible
EXTD=YEAR: 2009
EXTT0=
EXTT1=
EXTT2=
EXTT3=
EXTT4=
EXTT5=
EXTT6=
EXTT7=
EXTT8=
EXTT9=
EXTT10=
EXTT11=
PLAYORDER=
